<?xml version="1.0" encoding="UTF-8"?>
<svg width="720" height="360" version="1.1" viewBox="0 0 720 360" xmlns="http://www.w3.org/2000/svg" xmlns:osb="http://www.openswatchbook.org/uri/2009/osb" xmlns:xlink="http://www.w3.org/1999/xlink">
 <defs>
  <linearGradient id="linearGradient1257">
   <stop stop-color="#251d5b" offset="0"/>
   <stop stop-color="#a42c8e" offset="1"/>
  </linearGradient>
  <linearGradient id="linearGradient910-3" x1="161.4" x2="274.39" y1="79.168" y2="170.76" gradientTransform="matrix(3.7795 0 0 3.7795 -552.31 -210.39)" gradientUnits="userSpaceOnUse" xlink:href="#linearGradient908-9"/>
  <linearGradient id="linearGradient908-9" osb:paint="gradient">
   <stop stop-color="#251d5b" offset="0"/>
   <stop stop-color="#5e2472" offset="1"/>
  </linearGradient>
  <linearGradient id="linearGradient908" x1="404" x2="863" y1="83" y2="452" gradientTransform="translate(3.8931)" gradientUnits="userSpaceOnUse" xlink:href="#linearGradient1257"/>
  <linearGradient id="linearGradient913" x1="404" x2="863" y1="83" y2="452" gradientTransform="translate(1.7384)" gradientUnits="userSpaceOnUse" xlink:href="#linearGradient1257"/>
  <linearGradient id="linearGradient915" x1="404" x2="863" y1="83" y2="452" gradientTransform="translate(1.8941)" gradientUnits="userSpaceOnUse" xlink:href="#linearGradient1257"/>
  <linearGradient id="linearGradient919" x1="404" x2="863" y1="83" y2="452" gradientTransform="translate(.91707)" gradientUnits="userSpaceOnUse" xlink:href="#linearGradient1257"/>
  <linearGradient id="linearGradient923" x1="404" x2="863" y1="83" y2="452" gradientTransform="translate(-1.5832)" gradientUnits="userSpaceOnUse" xlink:href="#linearGradient1257"/>
 </defs>
 <g transform="translate(-140 71.155)">
  <g fill="#000000" font-family="sans-serif" font-size="52.653px" letter-spacing="0px" stroke-width="1.3163" word-spacing="0px">
   <text x="923.4259" y="310.63629" style="line-height:1.25" xml:space="preserve"><tspan x="923.4259" y="357.22211" stroke-width="1.3163"/></text>
   <text x="604.06299" y="323.0885" style="line-height:1.25" xml:space="preserve"><tspan x="604.06299" y="369.67432" stroke-width="1.3163"/></text>
   <text x="629.65356" y="786.65509" style="line-height:1.25" xml:space="preserve"><tspan x="629.65356" y="833.24091" stroke-width="1.3163"/></text>
   <text x="577.9812" y="252.38696" style="line-height:1.25" xml:space="preserve"><tspan x="577.9812" y="298.97278" stroke-width="1.3163"/></text>
  </g>
  <g transform="matrix(1.8179 0 0 1.8179 326.7 -193.71)" fill="url(#linearGradient910-3)" stroke-linecap="round" stroke-linejoin="round" stroke-width="1.0741">
   <path transform="matrix(.26458 0 0 .26458 27.599 51.121)" d="m81.996 64.324c-1.125 0-2.2502 0.13396-3.3574 0.38867s-2.1956 0.62865-3.25 1.1055c-1.0544 0.47682-2.0746 1.0583-3.041 1.7246-0.9664 0.66634-1.8793 1.4189-2.7227 2.2422-0.84333 0.82326-1.6156 1.7165-2.3008 2.6641-0.68516 0.94759-1.2835 1.949-1.7754 2.9883s-0.87714 2.1164-1.1406 3.2148c-0.26349 1.0985-0.4043 2.2188-0.4043 3.3438v96c0 1.125 0.14081 2.2518 0.4043 3.3594s0.64875 2.1971 1.1406 3.252c0.49188 1.0549 1.0902 2.074 1.7754 3.041 0.68516 0.96705 1.4574 1.8825 2.3008 2.7266s1.7563 1.6169 2.7227 2.3027c0.9664 0.68581 1.9866 1.283 3.041 1.7754 1.0544 0.4924 2.1428 0.88074 3.25 1.1445 1.1072 0.26379 2.2324 0.40429 3.3574 0.40429h159.68c1.125 0 2.2502-0.1405 3.3574-0.40429 1.1072-0.2638 2.1956-0.65214 3.25-1.1445 1.0544-0.49239 2.0746-1.0896 3.041-1.7754 0.96641-0.6858 1.8793-1.4587 2.7227-2.3027s1.6176-1.7595 2.3027-2.7266c0.68516-0.96706 1.2816-1.9861 1.7734-3.041s0.87909-2.1444 1.1426-3.252 0.40234-2.2344 0.40234-3.3594v-96c0-1.125-0.13885-2.2453-0.40234-3.3438-0.26349-1.0985-0.65071-2.1755-1.1426-3.2148s-1.0883-2.0407-1.7734-2.9883c-0.68515-0.94759-1.4594-1.8408-2.3027-2.6641-0.84333-0.82326-1.7562-1.5758-2.7227-2.2422-0.9664-0.66634-1.9866-1.2478-3.041-1.7246-1.0544-0.47682-2.1428-0.85076-3.25-1.1055-1.1072-0.25471-2.2324-0.38867-3.3574-0.38867z"/>
   <path transform="matrix(.26458 0 0 .26458 27.599 51.121)" d="m338 64.002c-1.125 0-2.2502 0.14081-3.3574 0.4043-1.1072 0.26349-2.1976 0.6507-3.252 1.1426-1.0544 0.49188-2.0726 1.0883-3.0391 1.7734-0.9664 0.68516-1.8793 1.4594-2.7226 2.3027-0.84334 0.84333-1.6176 1.7563-2.3027 2.7227-0.68515 0.9664-1.2816 1.9847-1.7734 3.0391-0.49187 1.0544-0.87908 2.1447-1.1426 3.252-0.26349 1.1072-0.4043 2.2324-0.4043 3.3574-1e-5 56.021-0.0765 100.13 0 156 0 1.125-0.14051 2.2499-0.4043 3.3574s-0.65018 2.199-1.1426 3.2539c-0.49239 1.0549-1.0896 2.074-1.7754 3.041-0.6858 0.96706-1.4607 1.8806-2.3047 2.7246-0.84403 0.84403-1.7576 1.6189-2.7246 2.3047-0.96706 0.6858-1.9881 1.283-3.043 1.7754s-2.1444 0.87879-3.252 1.1426c-1.1075 0.26379-2.2324 0.4043-3.3574 0.4043h-220.01c-1.125 0-2.2502 0.1408-3.3574 0.40429s-2.1956 0.65071-3.25 1.1426c-1.0544 0.49188-2.0746 1.0883-3.041 1.7734-0.9664 0.68515-1.8793 1.4594-2.7227 2.3027-0.84333 0.84334-1.6156 1.7563-2.3008 2.7227-0.68516 0.9664-1.2835 1.9866-1.7754 3.041-0.49187 1.0544-0.87714 2.1428-1.1406 3.25-0.26349 1.1072-0.4043 2.2324-0.4043 3.3574 5.1e-5 84-0.0029 72.004 0 156 0 1.125 0.14081 2.2502 0.4043 3.3574 0.26349 1.1072 0.64875 2.1976 1.1406 3.252s1.0902 2.0727 1.7754 3.0391c0.68516 0.96641 1.4574 1.8813 2.3008 2.7246s1.7563 1.6156 2.7227 2.3008c0.9664 0.68516 1.9866 1.2835 3.041 1.7754 1.0544 0.49188 2.1428 0.87714 3.25 1.1406s2.2324 0.40429 3.3574 0.40429h92.004c1.125 0 2.2499-0.1408 3.3574-0.40429s2.199-0.64875 3.2539-1.1406c1.0549-0.49187 2.074-1.0902 3.041-1.7754 0.96706-0.68515 1.8806-1.4574 2.7246-2.3008 0.84403-0.84333 1.6189-1.7582 2.3047-2.7246 0.6858-0.9664 1.283-1.9847 1.7754-3.0391s0.87879-2.1447 1.1426-3.252c0.26379-1.1072 0.40625-2.2324 0.40625-3.3574v-60.002c0-1.125 0.13885-2.2499 0.40234-3.3574s0.65071-2.199 1.1426-3.2539c0.49188-1.0549 1.0883-2.074 1.7734-3.041 0.68515-0.96706 1.4594-1.8825 2.3027-2.7266 0.84334-0.84402 1.7562-1.6169 2.7227-2.3027 0.9664-0.6858 1.9866-1.283 3.041-1.7754 1.0544-0.49239 2.1428-0.88074 3.25-1.1445 1.1072-0.26379 2.2324-0.4043 3.3574-0.4043h92.004c1.125 0 2.2502 0.14051 3.3574 0.4043 1.1072 0.26379 2.1976 0.65214 3.252 1.1445s2.0727 1.0896 3.0391 1.7754 1.8793 1.4587 2.7227 2.3027c0.84333 0.84403 1.6176 1.7595 2.3027 2.7266 0.68516 0.96705 1.2816 1.9861 1.7734 3.041 0.49187 1.0549 0.87909 2.1464 1.1426 3.2539s0.40429 2.2324 0.40429 3.3574l0.01 60.002c0 1.125 0.14081 2.2502 0.4043 3.3574 0.26349 1.1072 0.6507 2.1976 1.1426 3.252 0.49188 1.0544 1.0883 2.0727 1.7734 3.0391 0.68516 0.96641 1.4594 1.8813 2.3027 2.7246 0.84333 0.84333 1.7562 1.6156 2.7226 2.3008 0.96641 0.68516 1.9847 1.2835 3.0391 1.7754 1.0544 0.49188 2.1447 0.87714 3.252 1.1406s2.2324 0.40429 3.3574 0.40429h92.004c1.125 0 2.2502-0.1408 3.3574-0.40429 1.1072-0.26349 2.1956-0.64875 3.25-1.1406 1.0544-0.49187 2.0746-1.0902 3.041-1.7754 0.96641-0.68515 1.8793-1.4574 2.7227-2.3008s1.6176-1.7582 2.3027-2.7246c0.68516-0.9664 1.2816-1.9847 1.7734-3.0391 0.49188-1.0544 0.87909-2.1447 1.1426-3.252 0.26349-1.1072 0.40234-2.2324 0.40234-3.3574v-348.01c0-1.125-0.13885-2.2502-0.40234-3.3574-0.26349-1.1072-0.6507-2.1976-1.1426-3.252-0.49187-1.0544-1.0883-2.0727-1.7734-3.0391-0.68515-0.9664-1.4594-1.8793-2.3027-2.7227s-1.7562-1.6176-2.7227-2.3027c-0.9664-0.68516-1.9866-1.2816-3.041-1.7734-1.0544-0.49187-2.1428-0.87909-3.25-1.1426-1.1072-0.26349-2.2324-0.4043-3.3574-0.4043z"/>
  </g>
  <g transform="translate(-1.155 -140)">
   <path d="m478.25 354c-0.70635 0-1.4487 0.22656-1.875 0.82813-0.34677 0.4894-0.49159 1.0716-0.54102 1.7188a0.9271 0.9271 0 0 0-4e-3 0.0703v68.344c0 0.57091 0.14854 1.1337 0.42578 1.6367a0.9271 0.9271 0 0 0 0.0684 0.10742c0.44002 0.59134 1.1955 0.87305 1.9258 0.87305h45.184c0.71508 0 1.4187-0.19407 1.916-0.69531 0.49731-0.50125 0.68945-1.2048 0.68945-1.9219 0-0.73248-0.18464-1.4416-0.67773-1.957-0.49308-0.51539-1.2069-0.72461-1.9277-0.72461h-42.33v-29.279h30.77c0.71912 0 1.4073-0.16233 1.9258-0.6289 0.51846-0.46658 0.74219-1.1696 0.74219-1.8633 0-0.73796-0.19741-1.4571-0.70508-1.9688-0.50767-0.51169-1.2271-0.71289-1.9629-0.7129h-30.77v-28.59h39.16c0.71508 0 1.4187-0.19602 1.916-0.69726 0.49731-0.50125 0.68945-1.2048 0.68945-1.9219 0-0.75202-0.18019-1.4767-0.72851-1.9766-0.50074-0.49147-1.1722-0.64063-1.877-0.64063z" fill="url(#linearGradient919)" style="font-feature-settings:normal;font-variant-caps:normal;font-variant-ligatures:normal;font-variant-numeric:normal"/>
   <path d="m556.76 354c-0.72342 0-1.4203 0.17532-1.9316 0.65625-0.51131 0.48094-0.72265 1.185-0.72265 1.8926v67.691c0 0.72202 0.20309 1.4324 0.71093 1.9277s1.2146 0.6836 1.9434 0.6836c0.71347 0 1.4146-0.19598 1.9082-0.69532 0.49363-0.49933 0.68359-1.1996 0.68359-1.916v-61.994l50.279 63.936c0.42767 0.57361 1.0071 1.0072 1.6777 1.1856 0.51575 0.13721 1.0065 0.21094 1.4785 0.21094 0.49614 0 0.94322-0.0551 1.3652-0.25196 0.41835-0.19515 0.79934-0.60196 0.93555-1.0723 0.16696-0.45037 0.29101-0.79558 0.29101-1.2246v-68.42c0-0.68946-0.15369-1.3494-0.63867-1.8379-0.49679-0.53871-1.2085-0.71094-1.9531-0.71094-0.70798 0-1.399 0.18272-1.8965 0.66797-0.49748 0.48525-0.6953 1.1791-0.6953 1.8809v61.777l-49.484-62.947a0.91251 0.91251 0 0 0-0.25585-0.22071c-0.0391-0.0459-0.10609-0.13055-0.20508-0.27539-0.42195-0.61737-1.1912-0.94336-1.9356-0.94336z" fill="url(#linearGradient919)" style="font-feature-settings:normal;font-variant-caps:normal;font-variant-ligatures:normal;font-variant-numeric:normal"/>
   <path d="m717.33 329.63c-0.78983 0-1.5357 0.25557-2.1953 0.73242-0.68465 0.44059-1.1794 1.1288-1.4726 2.0098l0.01-0.0273-35.145 85.824-33.848-85.471-2e-3 -2e-3c-0.23757-0.71243-0.62924-1.3452-1.1621-1.8789-0.59731-0.59821-1.4874-0.86133-2.5859-0.86133-0.7458 0-1.3141 0.0896-1.7305 0.41992-0.32661 0.24825-0.49805 0.65869-0.49805 1.0801 0 0.33002 0.0637 0.67296 0.18359 1.0332a0.44314 0.44314 0 0 0 0.041 0.0879c0.15363 0.25642 0.30897 0.54201 0.46484 0.85352l36.445 92.266c0.18076 0.68803 0.48713 1.2383 0.96484 1.5801a0.44314 0.44314 0 0 0 0.0391 0.0254c0.5131 0.29364 1.213 0.38281 2.168 0.38281 0.42338 0 0.83081-0.15357 1.1582-0.42968 0.32739-0.27612 0.58299-0.66049 0.79102-1.1367a0.44314 0.44314 0 0 0 4e-3 -0.01l38.16-93.102a0.44314 0.44314 0 0 0 0.01-0.0293c0.0989-0.29726 0.22069-0.56538 0.36523-0.80664a0.44314 0.44314 0 0 0 0.0176-0.0293c0.18436-0.36925 0.28906-0.73226 0.28906-1.0918 0-0.43281-0.31456-0.79998-0.70703-1.0117-0.42481-0.31741-0.9897-0.4082-1.7656-0.4082z" fill="url(#linearGradient923)" style="font-feature-settings:normal;font-variant-caps:normal;font-variant-ligatures:normal;font-variant-numeric:normal"/>
   <path d="m756.03 329.63c-0.6788 0-1.416 0.29253-2.2656 0.81445a0.44799 0.44799 0 0 0-0.0117 8e-3c-0.95772 0.63032-1.4374 1.9582-1.6602 3.8965l-10.471 90.426a0.44799 0.44799 0 0 0-4e-3 0.0527c0 0.94123 0.15923 1.6826 0.5918 2.1992a0.44799 0.44799 0 0 0 0.0469 0.0488c0.53782 0.47197 1.36 0.60937 2.4883 0.60937 0.60175 0 1.1549-0.26609 1.5137-0.73828 0.3584-0.47175 0.55024-1.1076 0.63672-1.9023v-2e-3l10.191-88.195 36.354 88.883c0.19139 0.52249 0.52513 0.9515 0.97852 1.2266 0.45338 0.27506 1.0063 0.39648 1.6328 0.39648 0.50224 0 0.9733-0.13806 1.3711-0.4043 0.46793-0.27726 0.82728-0.71755 1.0703-1.2773a0.44799 0.44799 0 0 0 4e-3 -0.01l36.357-88.809 10.111 88.191a0.44799 0.44799 0 0 0 2e-3 0.0117c0.11247 0.80608 0.27613 1.4293 0.53907 1.9004a0.44799 0.44799 0 0 0 0.0156 0.0273c0.31895 0.48981 0.91503 0.70117 1.5938 0.70117 1.1283 0 1.9331-0.12237 2.4316-0.63281 0.49806-0.5099 0.69532-1.2743 0.69531-2.2246a0.44799 0.44799 0 0 0-4e-3 -0.0527l-10.471-90.426c-0.22274-1.9383-0.70243-3.2662-1.6602-3.8965-0.8027-0.52831-1.5569-0.82226-2.2773-0.82226-1.454 0-2.5726 0.24746-3.3457 0.83593-0.78771 0.54311-1.3674 1.5648-1.8672 3.043l6e-3 -0.0195-1.7852 4.5703-32.949 79.693-32.623-78.859-1.9453-5.3945a0.44799 0.44799 0 0 0-2e-3 -4e-3c-0.55421-1.4752-1.1601-2.4895-1.9434-3.0293-0.7731-0.58847-1.8918-0.83593-3.3457-0.83593z" fill="url(#linearGradient923)" style="font-feature-settings:normal;font-variant-caps:normal;font-variant-ligatures:normal;font-variant-numeric:normal"/>
   <path d="m154.73 329.63c-0.66941 0-1.3386 0.2589-1.8359 0.70703-0.4973 0.44813-0.83007 1.1173-0.83007 1.7949v93.053c0 0.67766 0.33277 1.3448 0.83007 1.793 0.49729 0.44813 1.1665 0.70703 1.8359 0.70703 0.66943 0 1.3367-0.25889 1.834-0.70703 0.49728-0.44813 0.83203-1.1153 0.83203-1.793v-43.877h62.371v43.877c0 0.67765 0.33279 1.3448 0.83009 1.793 0.49729 0.44813 1.1665 0.70703 1.8359 0.70703 0.66942 0 1.3367-0.25889 1.834-0.70703 0.49729-0.44813 0.83009-1.1153 0.83009-1.793v-93.053c0-0.67766-0.33279-1.3468-0.83009-1.7949-0.49728-0.44813-1.1646-0.70703-1.834-0.70703-0.66941 0-1.3386 0.2589-1.8359 0.70703s-0.83009 1.1173-0.83009 1.7949v44.176h-62.371v-44.176c0-0.67766-0.33474-1.3468-0.83203-1.7949-0.4973-0.44813-1.1646-0.70703-1.834-0.70703z" fill="url(#linearGradient908)" style="font-feature-settings:normal;font-variant-caps:normal;font-variant-ligatures:normal;font-variant-numeric:normal"/>
   <path d="m262.13 354c-0.72714 0-1.4287 0.17924-1.9414 0.66602-0.51268 0.48678-0.72266 1.1946-0.72266 1.9082v68.43c0 0.71363 0.20998 1.4214 0.72266 1.9082 0.5127 0.48678 1.2143 0.66797 1.9414 0.66797 0.71175 0 1.4075-0.18865 1.9063-0.67969 0.49869-0.49103 0.69531-1.1886 0.69531-1.8965v-68.43c0-0.70787-0.19662-1.4054-0.69531-1.8965-0.49872-0.49104-1.1945-0.67774-1.9063-0.67774z" fill="url(#linearGradient913)" style="font-feature-settings:normal;font-variant-caps:normal;font-variant-ligatures:normal;font-variant-numeric:normal"/>
   <g fill="url(#linearGradient915)">
    <path d="m300.02 356.67q0.12433-1.7405 1.4918-1.7405h21.259q7.397 0 13.924 2.735 6.5268 2.735 11.375 7.5214 4.9106 4.7242 7.77 11.251 2.8594 6.4646 2.8594 13.986 0 7.5214-2.8594 14.173-2.8594 6.589-7.77 11.5-4.9106 4.9106-11.5 7.77-6.589 2.7972-13.986 2.7972h-21.072q-0.74592 0-1.1189-0.49728t-0.37296-1.181zm22.751 66.636q6.589 0 12.432-2.5486 5.9052-2.6107 10.319-7.0862 4.4134-4.4755 6.9619-10.443 2.6107-6.0295 2.6107-12.805 0-6.7754-2.6107-12.618-2.5486-5.9052-6.9619-10.194-4.4134-4.3512-10.381-6.7754-5.9052-2.4864-12.556-2.4864h-19.145v64.957z" style="font-feature-settings:normal;font-variant-caps:normal;font-variant-ligatures:normal;font-variant-numeric:normal"/>
    <path d="m389.87 354c-0.65173 0-1.3277 0.25601-1.7578 0.75782-0.43012 0.5018-0.60429 1.1397-0.6543 1.8398a0.92359 0.92359 0 0 0-4e-3 0.0664v68.312c0 0.62374 0.18806 1.2423 0.5586 1.7363 0.42595 0.56794 1.1549 0.86719 1.8574 0.86719h21.072c5.0478 0 9.8406-0.95771 14.348-2.8711a0.92359 0.92359 0 0 0 6e-3 -4e-3c4.4929-1.9497 8.4287-4.6065 11.785-7.9629s6.0151-7.2923 7.9648-11.785a0.92359 0.92359 0 0 0 0-4e-3c1.9561-4.5501 2.9356-9.4058 2.9356-14.537 0-5.1298-0.97882-9.9256-2.9375-14.355l-2e-3 -4e-3c-1.9497-4.4489-4.6073-8.303-7.9648-11.535l-4e-3 -4e-3c-3.3163-3.2728-7.2127-5.8456-11.664-7.7109-4.4659-1.8714-9.2341-2.8066-14.279-2.8066zm2.8516 5.2656h18.221c4.319 0 8.3767 0.80458 12.199 2.4141a0.92359 0.92359 0 0 0 0.01 4e-3c3.8733 1.5735 7.225 3.7632 10.08 6.5781a0.92359 0.92359 0 0 0 4e-3 4e-3c2.854 2.7736 5.1034 6.065 6.7578 9.8984a0.92359 0.92359 0 0 0 6e-3 0.01c1.6862 3.774 2.5293 7.8438 2.5293 12.242 0 4.3984-0.84284 8.5336-2.5332 12.438a0.92359 0.92359 0 0 0-2e-3 6e-3c-1.6562 3.8779-3.9109 7.2554-6.7715 10.156-2.8607 2.901-6.1971 5.1946-10.033 6.8906-3.7776 1.647-7.7865 2.4688-12.059 2.4688h-18.408z" style="font-feature-settings:normal;font-variant-caps:normal;font-variant-ligatures:normal;font-variant-numeric:normal"/>
    <path d="m301.52 354c-0.65174 0-1.3277 0.25601-1.7578 0.75782-0.43012 0.5018-0.60429 1.1397-0.65429 1.8398a0.92359 0.92359 0 0 0-2e-3 0.0664v68.312c0 0.62374 0.18611 1.2423 0.55665 1.7363 0.42595 0.56794 1.1549 0.86719 1.8574 0.86719h21.072c5.0478 0 9.8406-0.95771 14.348-2.8711a0.92359 0.92359 0 0 0 8e-3 -4e-3c4.4929-1.9497 8.4268-4.6065 11.783-7.9629 3.3564-3.3564 6.0151-7.2923 7.9648-11.785a0.92359 0.92359 0 0 0 2e-3 -4e-3c1.9561-4.5501 2.9336-9.4058 2.9336-14.537 0-5.13-0.97867-9.9255-2.9375-14.355-1.9498-4.4507-4.6082-8.306-7.9668-11.539l-4e-3 -4e-3c-3.3163-3.2728-7.2107-5.8456-11.662-7.7109-4.4659-1.8714-9.2361-2.8066-14.281-2.8066zm0 1.8457h21.26c4.8176 0 9.3299 0.88876 13.566 2.6641 4.2493 1.7806 7.9365 4.219 11.084 7.3262a0.92359 0.92359 0 0 0 8e-3 0.01c3.1852 3.0642 5.7033 6.7068 7.5644 10.955a0.92359 0.92359 0 0 0 2e-3 4e-3c1.8526 4.1886 2.7812 8.7141 2.7812 13.611s-0.9288 9.4906-2.7851 13.809c-1.8626 4.2907-4.3841 8.0208-7.5742 11.211-3.1891 3.1891-6.9181 5.7099-11.207 7.5723-5.9e-4 2.4e-4 -1e-3 -2.5e-4 -2e-3 0-4.2777 1.8157-8.8107 2.7246-13.625 2.7246h-21.072c-0.29205 0-0.30757-0.0338-0.37891-0.12891-0.12674-0.16899-0.18945-0.33902-0.18945-0.62695v-68.256c0.0342-0.45096 0.1464-0.68416 0.21289-0.76172 0.0672-0.0784 0.0955-0.11328 0.35547-0.11328zm1.9277 1.5723a0.92359 0.92359 0 0 0-0.92383 0.92383v64.957a0.92359 0.92359 0 0 0 0.92383 0.92383h19.332c4.5117 0 8.7888-0.8751 12.801-2.625a0.92359 0.92359 0 0 0 4e-3 -2e-3c4.0375-1.785 7.5797-4.2168 10.604-7.2832 3.0229-3.0655 5.4106-6.6477 7.1523-10.725 1.7906-4.1354 2.6856-8.5363 2.6856-13.172 0-4.6356-0.89669-8.9774-2.6914-12.994-1.7425-4.0339-4.1304-7.5349-7.1562-10.477l-2e-3 -2e-3c-3.0286-2.9854-6.5961-5.3123-10.678-6.9707h-2e-3c-4.0478-1.7025-8.3594-2.5547-12.904-2.5547zm0.92383 1.8477h18.221c4.319 0 8.3767 0.80458 12.199 2.4141a0.92359 0.92359 0 0 0 0.01 4e-3c3.8733 1.5735 7.225 3.7632 10.08 6.5781a0.92359 0.92359 0 0 0 6e-3 4e-3c2.8541 2.7736 5.1034 6.065 6.7578 9.8984a0.92359 0.92359 0 0 0 4e-3 0.01c1.6862 3.774 2.5312 7.8438 2.5312 12.242 0 4.3984-0.84478 8.5336-2.5352 12.438a0.92359 0.92359 0 0 0-2e-3 6e-3c-1.6562 3.8779-3.909 7.2554-6.7695 10.156-2.8607 2.901-6.199 5.1946-10.035 6.8906-3.7776 1.647-7.7865 2.4688-12.059 2.4688h-18.408z" color="#000000" color-rendering="auto" dominant-baseline="auto" image-rendering="auto" shape-rendering="auto" solid-color="#000000" style="font-feature-settings:normal;font-variant-alternates:normal;font-variant-caps:normal;font-variant-ligatures:normal;font-variant-numeric:normal;font-variant-position:normal;isolation:auto;mix-blend-mode:normal;shape-padding:0;text-decoration-color:#000000;text-decoration-line:none;text-decoration-style:solid;text-indent:0;text-orientation:mixed;text-transform:none;white-space:normal"/>
   </g>
  </g>
 </g>
</svg>
