<?xml version="1.0" encoding="UTF-8"?>
<svg xmlns="http://www.w3.org/2000/svg" xmlns:xlink="http://www.w3.org/1999/xlink" width="192" height="192" viewBox="0 0 192 192" version="1.1">
<defs>
<linearGradient id="linear0" gradientUnits="userSpaceOnUse" x1="161" y1="78.865997" x2="275.690002" y2="173" gradientTransform="matrix(1.618724,0,0,1.618724,-251.712763,-105.258883)">
<stop offset="0" style="stop-color:rgb(14.509805%,11.372549%,35.686275%);stop-opacity:1;"/>
<stop offset="1" style="stop-color:rgb(36.862746%,14.117648%,44.705883%);stop-opacity:1;"/>
</linearGradient>
<linearGradient id="linear1" gradientUnits="userSpaceOnUse" x1="12.513" y1="119.029999" x2="61.466" y2="118.849998" gradientTransform="matrix(-2.278174,0,0,2.278174,179.775044,-153.847785)">
<stop offset="0" style="stop-color:rgb(98.431373%,98.431373%,98.431373%);stop-opacity:1;"/>
<stop offset="1" style="stop-color:rgb(88.235295%,88.235295%,88.235295%);stop-opacity:0.88235;"/>
</linearGradient>
<linearGradient id="linear2" gradientUnits="userSpaceOnUse" x1="12.513" y1="119.029999" x2="61.466" y2="118.849998" gradientTransform="matrix(-2.278174,0,0,2.278174,179.775044,-153.751451)">
<stop offset="0" style="stop-color:rgb(98.431373%,98.431373%,98.431373%);stop-opacity:1;"/>
<stop offset="1" style="stop-color:rgb(88.235295%,88.235295%,88.235295%);stop-opacity:0.88235;"/>
</linearGradient>
</defs>
<g id="surface1">
<path style=" stroke:none;fill-rule:nonzero;fill:url(#linear0);" d="M 20.878906 12.261719 L 171.125 12.261719 C 175.890625 12.261719 179.75 16.125 179.75 20.886719 L 179.75 171.136719 C 179.75 175.898438 175.890625 179.761719 171.125 179.761719 L 20.878906 179.761719 C 16.113281 179.761719 12.253906 175.898438 12.253906 171.136719 L 12.253906 20.886719 C 12.253906 16.125 16.113281 12.261719 20.878906 12.261719 Z M 20.878906 12.261719 "/>
<path style=" stroke:none;fill-rule:nonzero;fill:url(#linear1);" d="M 146.984375 39.765625 C 149.621094 39.765625 152.257812 42.402344 152.257812 45.039062 L 152.257812 146.992188 C 152.257812 149.628906 149.621094 152.265625 146.984375 152.265625 L 120.03125 152.265625 C 117.394531 152.265625 114.757812 149.628906 114.757812 146.992188 L 114.757812 129.414062 C 114.757812 126.777344 112.121094 124.140625 109.484375 124.140625 L 82.527344 124.140625 C 79.890625 124.140625 77.253906 126.777344 77.253906 129.414062 L 77.253906 146.992188 C 77.253906 149.628906 74.617188 152.265625 71.980469 152.265625 L 45.027344 152.265625 C 42.390625 152.265625 39.753906 149.628906 39.753906 146.992188 C 39.753906 122.382812 39.753906 125.898438 39.753906 101.289062 C 39.753906 98.652344 42.390625 96.015625 45.027344 96.015625 L 109.484375 96.015625 C 112.121094 96.015625 114.757812 93.378906 114.757812 90.742188 C 114.734375 74.371094 114.757812 61.449219 114.757812 45.039062 C 114.757812 42.402344 117.394531 39.765625 120.03125 39.765625 Z M 146.984375 39.765625 "/>
<path style=" stroke:none;fill-rule:nonzero;fill:url(#linear2);" d="M 91.808594 39.863281 L 45.03125 39.863281 C 42.394531 39.863281 39.757812 42.402344 39.757812 45.039062 L 39.757812 73.164062 C 39.757812 75.800781 42.394531 78.4375 45.03125 78.4375 L 91.808594 78.4375 C 94.445312 78.4375 97.082031 75.800781 97.082031 73.164062 L 97.082031 45.039062 C 97.082031 42.402344 94.445312 39.863281 91.808594 39.863281 Z M 91.808594 39.863281 "/>
</g>
</svg>
