<?xml version="1.0" encoding="UTF-8"?>
<svg width="16" height="16" version="1.1" xmlns="http://www.w3.org/2000/svg">
 <g transform="matrix(.21259 0 0 .2201 -12.296 -33.522)" fill="#bebebe" stroke="#fff" stroke-width="6.259">
  <g transform="translate(33.867 101.6)" fill="#bebebe" stroke="none">
   <path d="m90.57 51.121c2.3812 0 4.7625 2.3812 4.7625 4.7625v58.208c0 2.3812-2.1167 4.7625-4.7625 4.7625h-13.053c-2.3812 0-4.7625-2.3812-4.7625-4.7625v-7.4083c0-2.3812-2.3812-4.7625-4.7625-4.7625h-13.053c-2.3812 0-4.7625 2.3812-4.7625 4.7625l-1.4e-5 7.4083c-4e-6 2.3812-2.3815 4.7625-4.7628 4.7625h-13.053c-2.3812 0-4.7625-2.3812-4.762-4.7625-5.1e-4 -14.817-5.04e-4 -9.525-5.1e-4 -24.342-1e-6 -2.3812 2.3812-4.7625 4.7625-4.7625l35.631 3e-6c2.3812 0 4.7625-2.3813 4.7625-4.7625-0.0135-9.8556-1e-6 -14.46 0-24.342 0-2.3812 2.3812-4.7625 4.7625-4.7625z" style="paint-order:normal"/>
   <path d="m57.351 51.121h-24.989c-2.3812 0-4.7625 2.3812-4.7625 4.7625v13.758c0 2.3812 2.3812 4.7625 4.7625 4.7625h24.989c2.3812 0 4.7625-2.3813 4.7625-4.7625v-13.758c-1e-6 -2.3812-2.3813-4.7625-4.7625-4.7625z" style="paint-order:normal"/>
  </g>
 </g>
</svg>
